grf
version=1
nRows=18
nColumns=28
inDegrees=no
endheader
time	ground_force_1_vx	ground_force_1_vy	ground_force_1_vz	ground_force_1_px	ground_force_1_py	ground_force_1_pz	ground_moment_1_mx	ground_moment_1_my	ground_moment_1_mz	ground_force_2_vx	ground_force_2_vy	ground_force_2_vz	ground_force_2_px	ground_force_2_py	ground_force_2_pz	ground_moment_2_mx	ground_moment_2_my	ground_moment_2_mz	ground_force_3_vx	ground_force_3_vy	ground_force_3_vz	ground_force_3_px	ground_force_3_py	ground_force_3_pz	ground_moment_3_mx	ground_moment_3_my	ground_moment_3_mz
      0.88000000	      0.77647874	    -30.96020214	   -324.64768116	    604.69217548	   -949.54599274	      1.31376421	      1.33625165	      4.83190321	   2647.62278696	      1.41199387	     -4.98433590	      1.95620072	     36.56980393	  -1585.15538181	      0.25765959	      0.12137204	      1.56969704	  -1880.92624371	     -8.02391663	     30.14329335	   -168.96128998	    592.34596639	   -899.22999464	      1.68422593	     -0.10818199	      0.79469699	    386.96986653
      0.89000000	      1.25233921	    -24.39319628	   -316.30430552	    605.91563366	   -946.00039712	      1.30667604	      1.36259213	      4.92715075	   2699.81330703	      1.40253262	     -4.81724912	      1.95034597	    145.56528247	  -1590.90453377	      0.25989496	      0.08446431	      1.09237163	  -1308.95989313	    -10.36815857	     27.31189935	   -191.05753639	    592.50296185	   -895.78716711	      1.67719949	     -0.16397684	      1.20456188	    586.54953944
      0.90000000	      0.56510096	    -16.90154419	   -311.45943045	    607.11236554	   -943.05417889	      1.30069521	      1.25704033	      4.54547407	   2490.67503943	      1.46701297	     -5.21413090	      2.07116568	    139.53363339	  -1591.45839761	      0.25904354	      0.09074765	      1.17363368	  -1406.33404243	    -13.17831204	     24.48001928	   -216.52948522	    592.44001431	   -891.36649676	      1.66810342	     -0.14576927	      1.07081039	    521.42056592
      0.91000000	      0.96851513	     -8.21947041	   -307.67212725	    609.01287953	   -938.71661564	      1.29181998	      1.23525450	      4.46669621	   2447.50901360	      1.50113200	     -4.77517494	      2.19938789	    133.63023129	  -1536.70503203	      0.30435615	      0.08254317	      1.06752572	  -1279.18770141	    -16.75795280	     21.52169914	   -244.97273844	    591.75919276	   -888.89014328	      1.66282755	     -0.25250928	      1.85491470	    903.23243463
      0.92000000	      1.87615289	      0.31769236	   -307.15482649	    609.93439825	   -936.19645901	      1.28675561	      1.15336807	      4.17059382	   2285.26084983	      1.41852381	     -4.69367912	      2.16986109	    135.51076057	  -1587.20324175	      0.26233502	      0.08197077	      1.06012286	  -1270.31704507	    -20.56368287	     18.44063763	   -278.57590069	    592.66467709	   -885.54355594	      1.65620800	     -0.34659767	      2.54608118	   1239.78914472
      0.93000000	      3.45542668	      9.81139936	   -308.00430133	    610.55063059	   -934.88612008	      1.28405324	      1.04451242	      3.77697041	   2069.57641147	      1.45185309	     -4.93211421	      2.20909899	    118.84781611	  -1635.63460831	      0.22084217	      0.09570923	      1.23780153	  -1483.22467581	    -24.35180503	     15.32640716	   -315.47439275	    592.70188537	   -883.55818335	      1.65214116	     -0.43375093	      3.18630264	   1551.53867552
      0.94000000	      6.69709650	     18.70382220	   -312.78652154	    610.33496834	   -933.63214432	      1.28187358	      1.08161063	      3.91111801	   2143.08207700	      1.38148499	     -4.70113619	      2.74529145	    221.27417515	  -1670.08780731	      0.19869915	      0.06056938	      0.78334004	   -938.65554639	    -27.88809923	     14.25888881	   -356.82967293	    593.23013396	   -881.04440906	      1.64712645	     -0.48719914	      3.57892928	   1742.72434923
      0.95000000	      9.39718086	     26.76123477	   -319.53352347	    609.94322126	   -932.91534995	      1.28076315	      1.10457893	      3.99417169	   2188.59102031	      1.38713946	     -4.86410995	      2.41419950	    172.56810025	  -1665.00096834	      0.19980140	      0.08547455	      1.10543707	  -1324.61585954	    -31.95088171	     15.32717423	   -400.87920881	    593.20128111	   -878.58069786	      1.64205881	     -0.57633305	      4.23370047	   2061.55872820
      0.96000000	     12.92140446	     35.35622086	   -324.43667115	    609.25722002	   -932.81783620	      1.28093141	      1.16477227	      4.21183156	   2307.85691055	      1.56395283	     -4.80410672	      3.16392800	    234.45194218	  -1716.31302082	      0.16097297	      0.06386344	      0.82594194	   -989.70427934	    -35.75933976	     18.63339120	   -446.26019411	    593.23240500	   -878.10346809	      1.64108745	     -0.66687237	      4.89879568	   2385.42028709
      0.97000000	     16.51870586	     44.05454772	   -328.23303951	    608.71409378	   -933.12910572	      1.28177359	      1.20792035	      4.36785557	   2393.34966543	      1.51815067	     -4.67097906	      2.28395972	     94.82814735	  -1621.09739130	      0.23142404	      0.09905841	      1.28111628	  -1535.12758136	    -39.43686290	     22.54405875	   -494.66218871	    593.18022218	   -876.10036526	      1.63695921	     -0.74142727	      5.44647053	   2652.10515817
      0.98000000	     18.24337035	     52.02927377	   -328.64624922	    608.72087670	   -933.04256248	      1.28161223	      1.21537348	      4.39480619	   2408.11715178	      1.32633995	     -4.75837118	      2.63319630	    222.96813744	  -1662.39119257	      0.20523155	      0.06012358	      0.77757457	   -931.74694126	    -43.23848143	     26.05363132	   -546.42023616	    593.22519964	   -874.65838248	      1.63401047	     -0.88078396	      6.47017461	   3150.58777162
      0.99000000	     17.40205824	     60.96811791	   -325.72410022	    608.99832682	   -933.78898182	      1.28283441	      1.14571929	      4.14293574	   2270.10570919	      1.49887089	     -4.76162405	      1.97082870	     98.99829375	  -1591.49461637	      0.25639765	      0.09400086	      1.21570727	  -1456.74971422	    -45.69005338	     30.92485667	   -599.52731722	    593.15769050	   -873.20755664	      1.63101212	     -0.89502417	      6.57478218	   3201.52539582
      1.00000000	     14.07492570	     68.99016056	   -318.17704480	    610.23575406	   -933.27907643	      1.28127931	      1.05870240	      3.82828155	   2097.69215647	      1.30789481	     -4.51464814	      2.93021391	    212.64647073	  -1708.93136855	      0.16572615	      0.06267676	      0.81059459	   -971.31395075	    -48.05633098	     35.16054888	   -653.66225169	    593.51279488	   -872.22263811	      1.62908873	     -0.97059729	      7.12993682	   3471.85247835
      1.01000000	      9.28232070	     76.19878885	   -308.66440723	    611.26947480	   -933.81003965	      1.28172660	      0.90003933	      3.25455386	   1783.32027151	      1.48826268	     -4.70794746	      3.04006941	    270.67771739	  -1714.06288255	      0.16518835	      0.05103352	      0.66001333	   -790.87642896	    -48.78164764	     43.97798655	   -705.52513152	    593.75312081	   -871.26051211	      1.62718005	     -0.95297315	      7.00047113	   3408.81044002
      1.02000000	      4.87727196	     82.30739558	   -295.74899997	    611.97373114	   -935.38529916	      1.28424600	      0.75408684	      2.72678775	   1494.13286518	      1.39738948	     -4.74824012	      2.66564466	    199.22266120	  -1658.28486991	      0.20712617	      0.06784011	      0.87737187	  -1051.33139761	    -50.53752523	     55.12224567	   -755.06339812	    593.88680470	   -870.34101235	      1.62532911	     -0.91561447	      6.72603697	   3275.17742645
      1.03000000	      0.92384061	     88.87842271	   -275.72237308	    613.12757688	   -935.89026962	      1.28458523	      0.62601108	      2.26366413	   1240.36605843	      1.31364876	     -4.44596426	      2.29030537	    186.54520726	  -1701.48439411	      0.17025665	      0.07297645	      0.94379984	  -1130.93026061	    -51.77392673	     64.11164954	   -805.49122886	    594.18356416	   -868.92990855	      1.62251417	     -0.84002406	      6.17075539	   3004.78853484
      1.04000000	     -1.90960262	     94.25511951	   -249.82466658	    614.39475297	   -937.73731827	      1.28731654	      0.40699382	      1.47169493	    806.40957560	      1.37011170	     -4.51034072	      2.26124332	    115.60498579	  -1625.36915077	      0.22919979	      0.09232838	      1.19407720	  -1430.83097318	    -51.72829685	     73.35432065	   -852.43359865	    594.17501610	   -867.61670300	      1.61981493	     -0.76069371	      5.58800043	   2721.02174823
      1.05000000	     -4.32096661	     96.37273695	   -220.09174972	    615.75917512	   -938.68172716	      1.28835146	      0.20344813	      0.73567107	    403.10813531	      1.30741352	     -4.35819872	      3.01161551	    224.20992820	  -1736.58887881	      0.14339118	      0.05953308	      0.76993766	   -922.59583296	    -50.63251457	     86.18213577	   -895.17749568	    594.20348723	   -866.48674992	      1.61750237	     -0.69810721	      5.12824456	   2497.14815731
